# xmcd CD database file
#
# Track frame offsets:
#	150
#	19439
#	35217
#	52936
#	71379
#	85174
#	103180
#	120387
#	139902
#	161190
#	176894
#	196556
#	209031
#	239974
#
# Disc length: 3630 seconds
#
# Revision: 2
# Processed by: cddbd v1.5.2PL0 Copyright (c) Steve Scherf et al.
# Submitted via: CDex 1.70beta2
#
DISCID=d40e2c0e
DTITLE=Dave's True Story - Nature
DYEAR=2005
DGENRE=Jazz
TTITLE0=World In Which We Live
TTITLE1=Dog's Life
TTITLE2=I Lost My Nature
TTITLE3=Chasing The White Line Down
TTITLE4=Everlasting No
TTITLE5=Who Would Guess?
TTITLE6=Still She Knows
TTITLE7=How Do You Break A Heart?
TTITLE8=Cinder
TTITLE9=Sandman
TTITLE10=Small Black Heart
TTITLE11=Kiss Me Quick
TTITLE12=Blue Nile
TTITLE13=Data Track
EXTD=YEAR: 2005
EXTT0=
EXTT1=
EXTT2=
EXTT3=
EXTT4=
EXTT5=
EXTT6=
EXTT7=
EXTT8=
EXTT9=
EXTT10=
EXTT11=
EXTT12=
EXTT13=
PLAYORDER=
